<svg width="161" height="141" viewBox="0 0 161 141" fill="none" xmlns="http://www.w3.org/2000/svg">
<path fill-rule="evenodd" clip-rule="evenodd" d="M125.222 17.625H154.292C158.009 17.625 161 20.5717 161 24.2344V39.6562C161 49.4877 154.683 59.5945 143.698 67.3881C134.921 73.6395 124.216 77.6051 112.952 78.8719C104.175 93.2197 93.9167 99.1406 93.9167 99.1406V118.969H107.333C117.2 118.969 125.222 124.669 125.222 134.391V137.695C125.222 139.513 123.713 141 121.868 141H39.1319C37.2872 141 35.7778 139.513 35.7778 137.695V134.391C35.7778 124.669 43.7998 118.969 53.6667 118.969H67.0833V99.1406C67.0833 99.1406 56.8252 93.2197 48.0484 78.8719C36.812 77.6051 26.1066 73.6395 17.3019 67.3881C6.28906 59.5945 0 49.4877 0 39.6562V24.2344C0 20.5717 2.9908 17.625 6.70833 17.625H35.7778V6.60938C35.7778 2.94668 38.7686 0 42.4861 0H118.514C122.231 0 125.222 2.94668 125.222 6.60938V17.625ZM17.8889 39.6562C17.8889 42.8508 20.9356 48.2484 27.7557 53.0953C31.2497 55.5738 35.1908 57.5566 39.4115 58.9887C37.4549 52.1039 36.1132 44.2277 35.8337 35.25H17.8889V39.6562ZM143.111 39.6562C143.111 44.09 138.164 49.5979 133.244 53.0953C129.75 55.5738 125.781 57.5566 121.561 58.9887C123.517 52.1039 124.859 44.2277 125.138 35.25H143.111V39.6562ZM94.5643 40.0084L86.2093 48.0001L94.5643 55.9918C95.5895 56.9733 95.5895 58.5633 94.5643 59.544L92.7074 61.3201C91.6822 62.3008 90.019 62.3008 88.9937 61.3201L80.6388 53.3284L72.2838 61.3201C71.2585 62.3008 69.5954 62.3008 68.5701 61.3201L66.7133 59.544C65.688 58.5625 65.688 56.9725 66.7133 55.9918L75.0683 48.0001L66.7133 40.0084C65.688 39.0269 65.688 37.4369 66.7133 36.4562L68.5701 34.6801C69.5962 33.6994 71.2585 33.6994 72.2838 34.6801L80.6388 42.6718L88.9937 34.6801C90.0198 33.6994 91.6822 33.6994 92.7074 34.6801L94.5643 36.4562C95.5895 37.4377 95.5895 39.0277 94.5643 40.0084Z" fill="#586074"/>
</svg>
