<svg width="184" height="184" viewBox="0 0 184 184" fill="none" xmlns="http://www.w3.org/2000/svg">
<path fill-rule="evenodd" clip-rule="evenodd" d="M47.2673 45C21.153 45 0 66.1492 0 92.2603C0 118.371 21.153 139.521 47.2673 139.521C60.1159 139.521 71.7436 134.395 80.2474 126.099H103.753C112.259 134.396 123.912 139.521 136.733 139.521C162.847 139.521 184 118.371 184 92.2603C184 66.1512 162.877 45 136.761 45H47.2673ZM44.0904 98.4735L53.1649 107.208C54.2794 108.28 56.0871 108.28 57.2015 107.208L59.2199 105.265C59.3452 105.144 59.4565 105.015 59.5537 104.88C60.3523 103.804 60.2475 102.3 59.242 101.337L50.1461 92.6316L59.2199 83.898C60.2824 82.8753 60.3319 81.2467 59.3682 80.1668C59.3097 80.0989 59.2474 80.0331 59.1811 79.9696L58.1102 78.9447L57.2015 78.0701C57.1435 78.0143 57.0836 77.9613 57.022 77.9113C55.8984 76.9654 54.1891 77.0108 53.1207 78.0443L44.0738 86.8017L35.002 78.0701C33.9325 77.0407 32.2252 76.9993 31.1035 77.9457C31.0409 77.9967 30.9801 78.0506 30.9212 78.1076L29.9941 79.0049L28.9471 80.0128C28.8817 80.0756 28.8202 80.1408 28.7626 80.208C27.7998 81.2898 27.8533 82.9199 28.9195 83.9412L38.0182 92.6488L28.9471 101.38C27.9431 102.346 27.8436 103.853 28.6485 104.928C28.7453 105.061 28.856 105.189 28.9804 105.308L30.9654 107.208L31.0043 107.245C32.1218 108.314 33.9295 108.309 35.0409 107.234L44.0904 98.4735ZM148.506 81.3833C148.452 84.259 146.077 86.5466 143.201 86.4928C140.325 86.439 138.038 84.0641 138.092 81.1883C138.145 78.3126 140.52 76.025 143.396 76.0789C146.272 76.1327 148.559 78.5076 148.506 81.3833ZM149.213 103.789C149.159 106.665 146.784 108.952 143.908 108.899C141.032 108.845 138.745 106.47 138.799 103.594C138.853 100.718 141.227 98.4308 144.103 98.4846C146.979 98.5385 149.266 100.913 149.213 103.789ZM132.142 97.4278C129.271 97.258 127.081 94.7927 127.251 91.9215C127.421 89.0503 129.886 86.8604 132.757 87.0302C135.628 87.2 137.818 89.6652 137.648 92.5365C137.479 95.4077 135.013 97.5976 132.142 97.4278ZM154.552 97.9483C151.681 97.7785 149.491 95.3132 149.661 92.442C149.831 89.5708 152.296 87.3809 155.167 87.5507C158.038 87.7205 160.228 90.1858 160.058 93.057C159.889 95.9282 157.423 98.1181 154.552 97.9483Z" fill="#586074"/>
</svg>
